<?xml version="1.0" encoding="UTF-8" standalone="no"?>
<!-- Created with Inkscape (http://www.inkscape.org/) -->

<svg
   xmlns:dc="http://purl.org/dc/elements/1.1/"
   xmlns:cc="http://creativecommons.org/ns#"
   xmlns:rdf="http://www.w3.org/1999/02/22-rdf-syntax-ns#"
   xmlns:svg="http://www.w3.org/2000/svg"
   xmlns="http://www.w3.org/2000/svg"
   xmlns:sodipodi="http://sodipodi.sourceforge.net/DTD/sodipodi-0.dtd"
   xmlns:inkscape="http://www.inkscape.org/namespaces/inkscape"
   version="1.1"
   id="svg3772"
   width="5198.6665"
   height="4032"
   viewBox="0 0 5198.6665 4032"
   sodipodi:docname="Signature2.svg"
   inkscape:version="0.92.2 5c3e80d, 2017-08-06">
  <metadata
     id="metadata3778">
    <rdf:RDF>
      <cc:Work
         rdf:about="">
        <dc:format>image/svg+xml</dc:format>
        <dc:type
           rdf:resource="http://purl.org/dc/dcmitype/StillImage" />
        <dc:title></dc:title>
      </cc:Work>
    </rdf:RDF>
  </metadata>
  <defs
     id="defs3776" />
  <sodipodi:namedview
     pagecolor="#ffffff"
     bordercolor="#666666"
     borderopacity="1"
     objecttolerance="10"
     gridtolerance="10"
     guidetolerance="10"
     inkscape:pageopacity="0"
     inkscape:pageshadow="2"
     inkscape:window-width="1440"
     inkscape:window-height="807"
     id="namedview3774"
     showgrid="false"
     inkscape:zoom="0.29464286"
     inkscape:cx="9485.5757"
     inkscape:cy="8498.0348"
     inkscape:window-x="5"
     inkscape:window-y="0"
     inkscape:window-maximized="0"
     inkscape:current-layer="svg3772" />
  <path
     id="path3782"
     style="fill:#000000;stroke-width:0.50429952"
     d="m 8091.2908,-5206.7162 v 0 c -2.6796,-0.014 -5.4061,0.1155 -8.1803,0.4292 -14.0903,3.7707 -31.9567,8.365 -45.2536,17.9345 -20.273,11.8428 -36.0959,27.7279 -51.535,51.0757 -2.3868,4.4754 -10.0333,13.3057 -11.6542,17.6522 -9.8549,21.2124 -24.3344,43.3297 -30.302,67.2548 -5.602,12.1464 -9.9859,23.2872 -10.9296,33.8147 -6.0971,16.7469 -10.7153,38.1088 -14.1747,56.2117 -1.9469,15.0899 -6.3789,30.5978 -6.2001,42.6607 -2.7413,38.8582 -4.9717,79.7085 -1.2001,119.7847 1.6464,18.2174 1.6517,38.9188 6.3713,52.7652 0.8153,17.157 6.4829,29.6747 9.2906,43.1764 4.5572,16.5638 13.1719,38.2401 16.3361,55.0011 7.8346,13.3329 9.1197,21.5672 15.3887,33.265 5.9829,9.6819 15.3284,25.873 23.8811,35.4587 5.747,6.0305 15.9776,17.4658 23.6344,20.8612 7.8954,8.56 20.6558,16.2775 33.8368,21.1203 3.2257,-0.1638 6.0256,-0.2937 8.6404,-0.4094 -9.1771,2.1295 -3.4964,2.3117 4.2536,1.8297 3.5422,1.8482 7.8142,-0.6219 12.4655,3.634 5.8814,4.7895 14.9488,-12.9789 15.5719,-3.8782 15.0079,-5.1842 28.021,-14.6739 41.2996,-22.9823 7.3563,-4.8759 16.6751,-15.3137 22.0622,-18.4693 3.0957,-8.6616 6.9331,-5.4449 11.5649,-12.3981 -0.9609,1.4573 10.7023,-7.8855 4.0697,-8.0891 5.5446,0.5174 11.4324,-8.1371 11.52,-12.7654 2.3911,4.3511 11.3197,42.3656 16.3673,39.4492 -10.3415,6.6674 -18.8491,14.7875 -29.9237,23.3735 -13.1947,9.585 -32.3151,21.6584 -45.5889,32.7656 -18.4857,13.4466 -37.8797,24.2407 -59.0832,33.4508 -10.643,4.5404 -21.9648,5.6309 -32.3206,15.2967 -8.2198,12.6791 2.4832,34.3225 15.1434,36.4022 12.2143,2.1629 19.832,-7.6513 29.0523,-13.3944 21.9603,-16.7824 44.5275,-36.4816 68.3142,-51.8606 7.3956,-4.9454 18.7028,-12.0963 27.5123,-21.1046 5.9391,-2.8805 14.2122,-9.6278 21.2806,-12.677 1.3793,-1.5391 9.058,-8.1014 13.1545,-10.2887 -0.8231,0.936 -0.7435,1.0424 0.9323,-0.4523 -0.2807,0.1149 -0.598,0.2734 -0.9316,0.4514 2.2535,-2.5617 11.4498,-11.5012 14.7222,-12.2479 8.0188,-2.5795 16.6574,-13.5735 26.1265,-18.6319 11.2808,-6.7427 10.2095,-9.0029 22.0206,-15.7366 4.5116,-3.0813 4.3306,-5.3892 11.2251,-9.5788 8.7231,-6.8589 12.5935,-10.1392 20.9057,-15.9116 2.5712,-3.8299 12.7564,-6.3875 14.6502,-10.8787 5.7679,-3.3525 12.0833,-8.8531 17.8628,-12.9973 6.2908,-2.161 14.6255,-11.9208 17.4741,-13.741 6.6394,-0.2456 13.9103,-9.3422 20.8925,-12.8827 7.8038,-4.7111 18.9548,-14.139 29.9423,-20.4385 6.4732,-8.6217 7.3258,-4.5137 13.985,-9.1306 -6.4631,4.4894 4.6422,-3.0947 12.7207,-8.17 7.2905,-8.3319 21.6741,-11.9826 30.2425,-22.6364 10.5248,1.2949 13.1421,-9.3158 20.989,-10.3357 3.8667,-7.4167 5.4979,-3.8234 10.322,-7.6145 3.5739,-5.3516 15.3194,-10.8296 19.3123,-13.1121 10.1613,-8.1517 26.1585,-17.4344 39.0264,-26.9495 12.0696,-6.8456 19.4066,-13.0084 31.2025,-20.2604 6.8668,-2.8644 17.8608,-13.265 23.3621,-15.2306 12.567,-7.7399 21.7846,-11.6897 33.1722,-20.2834 9.838,-6.3179 17.3456,-9.7004 26.7037,-16.4373 98.377,-61.9633 182.1037,-98.9705 28.6715,-55.3848 -9.0356,6.9347 -25.961,17.8662 -32.3259,21.6724 -11.6243,7.8613 -26.7097,17.7576 -37.5605,24.141 -7.9424,4.6508 -17.1329,11.5643 -26.4884,16.4951 -19.1156,13.9679 -41.5105,25.8639 -60.6773,39.9387 -11.6333,6.737 -21.1411,15.3853 -31.2521,19.7196 -11.5614,8.1668 -27.678,19.6967 -42.0282,27.8492 -14.8116,11.9008 -23.6482,15.6738 -38.3144,26.2011 -8.5033,6.8418 -20.0959,10.2492 -26.6311,19.1906 -12.3629,4.5038 -26.483,16.6671 -38.8115,24.2112 -18.038,14.1688 -33.023,24.758 -53.7381,39.4559 -7.9504,7.0827 -21.6576,13.5245 -27.0932,20.847 -11.4097,8.0756 -21.4156,13.7675 -30.6346,21.6832 -14.2614,9.7871 -27.4639,20.9627 -42.2293,31.5162 6.1034,-12.3661 10.2893,-49.1098 13.4534,-57.3483 6.3895,-12.9578 9.1892,-29.1499 17.5435,-41.4904 15.6715,26.8207 38.7118,96.5623 42.9308,8.8577 -0.8774,7.4526 22.0158,-38.38 19.5573,-30.0439 6.4721,45.9785 7.4934,39.9527 15.4352,30.9425 0.3033,-19.2814 -4.2923,-64.4547 -5.0845,-81.783 2.3981,-4.5148 -3.1203,-16.2799 1.1134,-12.843 2.571,9.8044 5.5251,19.9652 7.7128,29.6509 -2.3923,5.4226 1.378,19.3607 7.1734,24.3283 -4.9652,-0.3026 14.2792,30.6653 17.4739,24.1698 13.6112,-7.5331 5.4149,-55.8434 7.1338,-73.3192 0.9442,-4.0051 9.3239,-17.7103 12.0862,-26.8094 3.1613,9.1162 0.5266,20.9315 5.7913,28.9618 -0.9072,-9.5316 -0.6682,15.2703 1.5624,23.2167 0,-2e-4 0,2e-4 0,0 3.6643,-1.6603 10.4403,28.3411 13.5298,29.1535 6.0388,-1.67 10.995,-42.635 10.5047,-52.6936 -1.0338,10.6376 4.232,-60.6444 12.3829,-36.885 -0.2855,5.0408 2.4206,34.0515 8.3879,33.3963 16.0922,55.8618 15.5078,-5.2209 16.7338,-14.3422 5.314,-6.079 4.9334,-14.3026 6.9986,-19.6269 0.01,0.048 0,0.078 0.01,0.1296 1.7685,1.7311 0.9962,-0.6027 0.4145,-1.0902 0.5025,-1.0147 1.1699,-1.967 2.0834,-2.8401 -2.0579,-4.9323 17.4415,36.0757 22.5302,35.2029 7.5165,-12.4328 -1.2008,-67.6367 -0.4302,-85.4689 -0.087,-5.8933 -0.2027,-22.1501 -0.1846,-30.0026 0.1731,-16.7761 -3.6797,-36.0168 -14.6785,-34.6309 -7.5715,-4.3049 -14.1932,3.2033 -21.2687,5.3176 -5.2977,6.9861 -4.2615,23.164 -0.8655,32.4125 1.8091,16.9626 8.8885,36.8132 -0.9025,50.6845 3.4753,-10.9915 -1.4882,-7.3617 -2.7222,-12.1777 -6.8628,-13.9307 -6.9768,-18.7386 -17.4768,-26.6748 -3.9472,-1.2688 -8.1277,-6.8638 -12.7472,-5.0329 -7.3448,1.4058 -15.3636,8.2029 -18.5512,18.8217 1.2984,11.6703 -11.2657,-0.1515 -16.4234,5.9333 -12.9665,6.2623 -15.3347,20.5774 -21.4485,34.9323 -8.2677,-10.397 -22.8624,-2.6005 -27.9701,2.2968 -4.2636,4.1103 -6.1065,14.5921 -5.4317,19.2064 5.9565,11.313 -4.0444,-4.5034 -6.996,-2.2053 -13.3511,-8.7881 -23.3747,7.7274 -19.3573,27.1755 15.5209,42.2151 19.7068,117.2756 -18.3296,49.3114 3.7638,3.6783 -16.0186,-11.4366 -15.0642,-14.0266 6.5149,-7.4992 -1.6821,-2.5416 -0.3484,-9.2651 0.9727,-5.4906 -4.6573,2.5071 -6.4525,6.7091 0.5267,-3.6885 0.019,-10.1367 -4.315,2.0839 -5.8029,2.2796 -11.8493,12.0099 -14.2039,18.192 -0.8643,-7.9963 -0.3466,-25.4562 -0.4661,-40.9604 -0.3967,-14.5941 -0.2618,-33.3411 1.7865,-51.216 3.409,-13.8043 -5.5368,-30.8528 4.1008,-43.0791 -4.3906,-17.0077 9.3829,-33.3119 1.4692,-45.6162 -0.4284,0.1021 -0.9094,0.08 -1.4196,-0.042 -0.7731,1.1032 -2.5347,2.0199 -4.2251,2.4743 -0.034,0.039 -0.067,0.077 -0.1058,0.1148 -0.1399,0.1931 -0.092,0.1252 -0.2756,0.3797 -0.01,-0.043 -0.02,-0.087 -0.028,-0.1305 0,0 -0.01,0 -0.01,0.01 -0.4379,0.5243 -0.9007,1.0496 -1.2457,1.3535 -0.4125,0.7359 -0.8144,1.1657 -1.2139,1.328 -0.3105,0.8848 -0.9971,1.3856 -2.2051,1.2396 -0.8865,2.1008 -2.0001,2.5599 -3.1275,2.174 -0.2635,1.1868 -0.4162,1.1994 -0.8827,0.5142 -0.094,0.3471 -0.2044,0.6781 -0.3365,0.9837 0.01,0.033 -0.019,0.083 -0.065,0.1387 -0.2636,0.5639 -0.606,1.0346 -1.0738,1.3412 -0.6877,0.4506 -1.4948,0.6698 -2.3221,0.7478 -0.122,0.3573 -0.066,0.1905 -0.2216,0.6453 -0.048,0.019 -0.082,0.033 -0.1296,0.051 -0.5019,1.2188 -0.9047,1.9728 -0.6915,0.6222 0.019,-0.1274 0.051,-0.2544 0.082,-0.3811 -0.2455,0.096 -0.4799,0.1881 -0.7087,0.2797 -0.624,0.6281 -1.2826,1.1789 -2.0074,1.5838 -0.1362,0.302 -0.2694,0.5913 -0.3835,0.8212 -0.9218,1.8569 -3.7786,2.4853 -5.9032,3.0191 -0.1374,0.6254 -0.2687,0.7389 -0.3637,0.095 -0.4746,0.1233 -0.917,0.2457 -1.2582,0.3806 -1.0175,0.4019 -1.8074,0.5304 -2.4193,0.4505 -2.438,16.8329 -5.0211,34.3178 -5.3802,36.9824 -0.1424,3.0657 1.202,23.315 -1.5584,27.2443 2.3396,13.8801 -0.6588,30.2742 1.0982,47.7578 -1.8488,7.7886 0.2896,14.8635 0.5495,18.0592 -1.3463,15.8331 -1.7796,25.7716 -0.8119,44.487 -2.2865,19.88 5.2801,41.3795 -10.4906,52.9121 -6.6831,10.2513 -18.6518,22.569 -29.5476,33.1388 -18.0479,19.3206 -39.3428,34.3213 -62.9671,39.5194 -6.5813,-0.9202 -21.4951,-2.1603 -28.485,-8.4827 -31.3913,-13.7132 -56.5389,-49.9003 -70.463,-86.079 -3.5745,-12.2532 -8.966,-21.7527 -11.0466,-33.0546 -16.7957,-51.1419 -26.2076,-109.5963 -22.7181,-169.8254 0.5172,-54.3839 9.1235,-110.2389 22.7148,-155.8419 5.1588,-23.1739 23.6092,-59.8444 32.1573,-78.5114 14.2168,-27.1672 21.2654,-41.4964 44.6875,-59.476 17.0581,-12.8197 34.0605,-21.0562 54.9251,-23.8834 32.9302,-1.1623 58.1878,18.7505 77.5291,48.3529 10.0312,10.4655 15.1994,25.8898 20.3127,38.8732 7.6622,22.6875 8.3695,46.9727 7.9668,67.7087 0.1706,-0.1066 0.3472,-0.2081 0.5315,-0.3054 0.062,-0.8513 0.3933,-1.509 1.093,-1.8289 0.01,-0.069 0.014,-0.1374 0.022,-0.2055 -0.6595,-0.1244 -0.4489,-0.7569 0.242,-1.6284 0.6173,-3.5826 1.672,-6.056 2.98,-2.935 0.2356,-0.2028 0.4729,-0.3999 0.7135,-0.5999 0.7774,-1.0946 1.8892,-2.2539 3.0884,-3.3566 0.078,-1.2132 0.2752,-2.0444 0.6533,-1.8645 0.5696,-1.3933 1.232,-2.2833 1.9452,-2.7864 1.4032,-3.2861 4.1807,-9.2094 6.6021,-9.3658 2e-4,-0.01 -1e-4,-0.01 0,-0.01 0.068,-1.0739 0.567,-1.4066 1.3091,-1.3188 0.091,-0.1286 0.176,-0.2506 0.2493,-0.3541 -0.1091,0.032 -0.219,0.065 -0.326,0.1016 -0.335,-1.6874 0.6994,-2.9921 2.2303,-3.8659 -1.014,-25.2772 -7.406,-48.9736 -19.8241,-71.8716 -9.8529,-19.9127 -26.7328,-42.6359 -43.2562,-55.261 -7.305,-8.2186 -17.7123,-10.3441 -25.3528,-16.2566 -11.8643,-2.2897 -24.9633,-6.5763 -39.4285,-6.6572 z m 101.0983,333.8554 c 0.2113,-0.082 0.3856,-0.1557 0.6096,-0.241 0.091,-0.2197 0.1796,-0.4471 0.2738,-0.6884 -0.169,0.014 -0.3388,0.021 -0.5084,0.025 -0.046,0.053 -0.094,0.1032 -0.1409,0.1568 -0.095,0.2483 -0.1731,0.4976 -0.2341,0.7485 z m 4.3566,-3.0264 c 0.021,-0.047 0.044,-0.091 0.065,-0.1387 -0.015,-0.05 -0.099,-0.069 -0.2704,-0.045 -0.8068,0.1139 -1.5959,0.344 -2.3789,0.6172 -0.1388,0.1676 -0.2779,0.334 -0.416,0.5027 -0.061,0.1769 -0.1104,0.322 -0.1923,0.5612 1.1848,-0.1537 2.8587,-1.0871 3.1928,-1.4971 z m 1.2841,-1.6367 c 0.015,-0.068 0.03,-0.1352 0.046,-0.2113 -0.2379,-0.1104 -0.4689,-0.2234 -0.6929,-0.3375 -0.013,0.072 -0.03,0.1416 -0.043,0.2129 0.2296,0.1413 0.4601,0.2571 0.6904,0.3359 z m 0.046,-0.2113 c 0.056,0.026 0.106,0.054 0.1627,0.079 0.6874,0.3119 1.0116,-0.8811 1.0421,-2.1714 -0.2522,-0.05 -0.5053,-0.11 -0.7585,-0.1709 -0.1893,0.9756 -0.3338,1.7276 -0.4463,2.2631 z m 1.2048,-2.0922 c 0.3181,0.063 0.6354,0.1186 0.9514,0.1576 -0.056,-0.069 -0.072,-0.1762 -0.039,-0.3293 0.043,-0.1897 0.082,-0.3532 0.1238,-0.5365 0.01,-0.099 0.01,-0.1918 0.013,-0.283 -0.3289,0.045 -0.662,0.09 -1.0725,0.1362 0.021,0.2802 0.03,0.569 0.022,0.855 z m -0.023,-0.855 c -0.032,-0.4127 -0.095,-0.7956 -0.1846,-1.1135 -0.07,0.038 -0.1394,0.067 -0.2076,0.086 -0.013,0.061 -0.026,0.1227 -0.038,0.1784 0.01,0.3395 -0.015,0.6423 -0.07,0.8996 0.1631,-0.017 0.3453,-0.033 0.4999,-0.05 z m -0.5,0.05 c -0.038,0.01 -0.077,0.01 -0.1144,0.012 -0.04,0.2005 -0.073,0.3759 -0.1091,0.5595 0.039,-0.073 0.081,-0.142 0.1164,-0.2195 0.046,-0.1017 0.08,-0.223 0.1071,-0.3517 z m -0.1144,0.012 c 0.056,-0.2851 0.1201,-0.5912 0.1851,-0.9113 0,-0.055 -0.01,-0.1124 -0.01,-0.1692 -0.1222,0.027 -0.2378,0.019 -0.3418,-0.032 -0.2055,0.06 -0.4114,0.123 -0.6157,0.1725 0.01,0.1948 0,0.3889 -0.031,0.581 -0.024,0.1434 -0.045,0.2974 -0.068,0.4465 0.3083,-0.029 0.5893,-0.058 0.8793,-0.088 z m -0.7802,-0.9394 c 0,-0.044 -10e-5,-0.087 -0.01,-0.1311 -0.2794,0.084 -0.5876,0.1693 -0.8992,0.255 -0.1112,0.3088 -0.2933,0.5718 -0.5607,0.7791 0.216,-0.1193 0.4485,-0.3568 0.7002,-0.7535 0.2529,-0.035 0.5075,-0.087 0.763,-0.1495 z m -0.01,-0.1311 c 0.1707,-0.051 0.3165,-0.099 0.4734,-0.1486 -0.01,-0.01 -0.019,-0.014 -0.028,-0.024 -0.1429,-0.1698 -0.2805,-0.3448 -0.4178,-0.5207 -0.04,0.038 -0.078,0.068 -0.1178,0.1023 0.041,0.1964 0.076,0.3938 0.09,0.591 z m 2.457,1.1554 c -0.011,0.2662 -0.022,0.5473 -0.031,0.874 -0.018,-0.01 -0.036,-0.01 -0.054,-0.01 0.125,0.1548 0.4497,0.1169 0.857,-0.038 -0.039,-0.01 -0.076,-0.01 -0.1157,-0.014 0.3081,-0.6959 0.555,-1.2376 0.7518,-1.6869 0.011,-0.042 0.023,-0.083 0.034,-0.1263 -0.1053,-0.1104 -0.2115,-0.2341 -0.3181,-0.3681 -0.2069,0 -0.4136,-0.01 -0.6214,-0.014 0.05,0.4913 0.049,1.026 -0.068,1.0441 -0.1002,0.016 -0.2539,0.032 -0.3664,0.047 -0.023,0.097 -0.044,0.1913 -0.067,0.2905 z m 0.5019,-1.3816 c -0.017,-0.1726 -0.037,-0.3386 -0.066,-0.4754 -0.039,0.159 -0.076,0.3029 -0.1157,0.4679 0.061,0.01 0.1207,0.01 0.1812,0.01 z m -0.066,-0.4754 c 0,-0.01 0.01,-0.013 0.01,-0.019 -0.01,0 -0.01,0 -0.01,0.01 0,0.01 0.01,0.01 0.01,0.016 z m 0.01,-0.019 c 0.089,-0.022 0.1777,-0.042 0.2664,-0.062 -0.01,-0.01 -0.013,-0.022 -0.02,-0.032 -0.073,-0.01 -0.1472,-0.01 -0.2209,-0.012 -0.01,0.035 -0.016,0.07 -0.025,0.1056 z m 0.026,-0.1056 c 0.012,-0.05 0.024,-0.1 0.038,-0.1494 -0.042,0.014 -0.09,0.03 -0.1348,0.046 0.012,0.03 0.024,0.061 0.036,0.1007 0.021,0 0.041,0.01 0.063,0.01 z m -0.098,-0.1041 c -0.053,-0.1274 -0.1124,-0.1342 -0.1705,0.058 0.061,-0.021 0.1134,-0.038 0.1705,-0.058 z m -0.1705,0.058 c -0.028,0.01 -0.049,0.017 -0.078,0.027 0.023,0 0.046,0 0.07,0.01 0.01,-0.01 0.01,-0.022 0.01,-0.031 z m -0.078,0.027 c -0.1891,-0.01 -0.3783,-0.028 -0.5674,-0.042 -0.076,0.1132 -0.1593,0.2188 -0.246,0.3177 0.2752,-0.093 0.5753,-0.1932 0.8134,-0.2764 z m 0.6512,2.8292 c 0.022,0.01 0.045,0.01 0.068,0.01 0.01,-0.014 0.013,-0.03 0.018,-0.044 -0.029,0.012 -0.058,0.024 -0.086,0.035 z m 4.7328,-3.912 c 0,0 0.01,-0.01 0.01,-0.01 -0.015,-0.084 -0.036,-0.1695 -0.054,-0.2542 -0.1684,0.038 -0.3342,0.072 -0.4978,0.098 -0.013,0.033 -0.026,0.068 -0.04,0.1 -0.01,0.012 -0.01,0.022 -0.014,0.034 -0.034,0.145 -0.066,0.2887 -0.085,0.4233 0.027,-0.013 0.053,-0.026 0.08,-0.039 0.1315,-0.1879 0.2038,-0.29 0.3709,-0.5256 -0.088,0.1109 -0.2338,0.3597 -0.3378,0.5092 0.204,-0.1015 0.3982,-0.216 0.5739,-0.3417 z m -0.5739,0.3417 c -0.012,0.01 -0.022,0.011 -0.033,0.017 -0.025,0.035 -0.047,0.066 -0.071,0.1007 0.017,0.01 0.058,-0.051 0.1045,-0.1173 z m 0.5237,-0.6001 c 0.1077,-0.024 0.2145,-0.045 0.3233,-0.072 0.1407,-0.1725 0.2813,-0.3448 0.4033,-0.4985 0.015,-0.058 0.024,-0.117 0.024,-0.1766 0,-0.1484 -0.01,-0.3239 -0.01,-0.4886 -0.2497,0.1602 -0.7017,0.4446 -0.8978,0.5711 0.058,0.2236 0.1082,0.4448 0.1546,0.6653 z m -0.1547,-0.6652 c -0.01,-0.025 -0.014,-0.05 -0.021,-0.076 -0.013,0.039 -0.028,0.078 -0.041,0.1163 0.014,-0.01 0.049,-0.031 0.063,-0.04 z m -0.021,-0.076 c 0.01,-0.018 0.013,-0.036 0.019,-0.054 -0.011,0.01 -0.017,0.014 -0.028,0.022 0.01,0.011 0.01,0.022 0.01,0.033 z m 0.019,-0.054 c 0.2722,-0.2082 0.5745,-0.4442 0.8952,-0.7007 -0.01,-0.2017 -0.013,-0.4189 -0.019,-0.6389 -0.2077,0.1942 -0.445,0.4251 -0.6711,0.6421 -0.054,0.2347 -0.1239,0.4676 -0.2043,0.6975 z m 0.8952,-0.7007 c 0.01,0.092 0.01,0.1723 0.01,0.2599 0.6975,-0.4474 1.3388,-0.8612 2.5072,-1.5978 0.047,-0.088 0.08,-0.1583 0.1217,-0.2386 -0.1642,-0.081 -0.3292,-0.1653 -0.4946,-0.2591 -0.7112,0.6643 -1.4623,1.2947 -2.1382,1.8356 z m 2.1383,-1.8356 c 0.2101,-0.1961 0.4143,-0.3951 0.6135,-0.5951 -0.04,0.01 -0.082,0.01 -0.1222,0.017 -0.2573,0.1506 -0.5189,0.2832 -0.7842,0.4028 0.098,0.059 0.1954,0.1204 0.2929,0.1757 z m 0.6135,-0.5951 c 0.085,-0.013 0.1703,-0.022 0.2547,-0.036 0.019,-0.08 0.031,-0.1484 0.032,-0.2055 -0.043,0.028 -0.086,0.054 -0.1289,0.082 -0.052,0.053 -0.1043,0.1067 -0.1574,0.16 z m 0.2547,-0.036 c -0.052,0.2076 -0.1754,0.5037 -0.3737,0.8905 0.4508,0.2211 0.8931,0.3898 1.3166,0.4903 0.022,-0.032 0.048,-0.064 0.069,-0.097 0.2049,-0.3196 0.386,-0.6587 0.5548,-1.0078 -0.1334,-0.1782 -0.2705,-0.3558 -0.4119,-0.5322 -0.381,0.1032 -0.7661,0.1889 -1.1551,0.2558 z m -3.019,3.3921 c -0.012,0.048 -0.034,0.095 -0.054,0.1428 0.6834,-0.9403 0.6647,-0.9119 0.054,-0.1428 z m -0.054,0.1428 c -0.082,0.1126 -0.1273,0.1757 -0.2387,0.3293 0.01,-0.01 0.02,-0.01 0.03,-0.01 0.09,-0.1029 0.1604,-0.2098 0.2089,-0.3202 z m 151.1442,154.7627 c -1.9555,0.8884 -2.3619,1.8095 0.5369,2.4182 -0.046,-0.5117 -0.2392,-1.3577 -0.5369,-2.4182 z m 808.9382,-387.2058 c -1.5919,-0.04 -3.1973,0.8347 -2.5662,3.5506 7.8344,-0.8716 5.2191,-3.4829 2.5662,-3.5506 z m -949.0464,63.5515 c 0.013,-0.032 -0.087,0.1039 -0.2202,0.2921 0.017,-0.01 0.035,-0.01 0.051,-0.016 0.038,-0.061 0.078,-0.1214 0.1157,-0.1833 0.033,-0.053 0.049,-0.082 0.054,-0.093 z m -0.1692,0.2765 c -0.079,0.1269 -0.1612,0.2496 -0.2407,0.3755 0.1384,0.02 0.282,0.05 0.4357,0.097 0.011,-0.017 0.021,-0.032 0.033,-0.049 0.057,-0.1791 0.1159,-0.3556 0.1758,-0.5309 -0.1357,0.033 -0.2703,0.069 -0.4033,0.1074 z m -0.7122,1.6474 c -0.063,0.012 -0.1634,0.072 -0.2743,0.1469 0.031,0.012 0.062,0.025 0.093,0.04 0.082,-0.057 0.1634,-0.1125 0.2453,-0.1684 -0.013,-0.016 -0.033,-0.024 -0.064,-0.018 z m -0.8919,0.6479 c -0.063,0.057 -0.1153,0.11 -0.17,0.1642 0.058,-0.042 0.1153,-0.084 0.1733,-0.1254 0,-0.013 -0.01,-0.026 -0.01,-0.039 z m 0.1521,0.9863 c -0.2671,0.095 -0.5136,0.1891 -0.695,0.2731 -0.038,0.3785 -0.075,0.757 -0.1124,1.1356 0.145,-0.072 0.2357,-0.1152 0.404,-0.2014 -0.1348,0.1133 -0.2757,0.2183 -0.4158,0.3245 -0.01,0.056 -0.012,0.1122 -0.017,0.1683 0.1419,-0.069 0.2839,-0.1311 0.4253,-0.1783 -0.01,0.02 -0.01,0.035 -0.013,0.053 0.01,-0.02 0.017,-0.038 0.025,-0.058 -0.01,0 -0.01,0 -0.013,0.01 0.1124,-0.4489 0.2604,-0.9834 0.4099,-1.5218 z m -0.8192,1.5318 c 0.01,-0.041 0.01,-0.082 0.013,-0.1231 -0.1303,0.065 -0.2501,0.126 -0.363,0.1816 -0.02,0.081 -0.041,0.1623 -0.062,0.2435 0.1395,-0.098 0.2767,-0.1992 0.4126,-0.302 z m 1.4645,-1.1498 c -0.052,0.079 -0.098,0.1593 -0.1322,0.2485 0.036,-0.062 0.072,-0.1237 0.1077,-0.1857 0.01,-0.021 0.016,-0.042 0.024,-0.063 z m -0.1931,0.4837 c -0.01,0.01 -0.01,0.014 -0.01,0.022 -0.014,0.077 -0.024,0.1646 -0.033,0.2592 0.015,-0.093 0.032,-0.1849 0.044,-0.2781 0,0 0,-0.01 -0.01,-0.01 z m -0.3657,0.5505 c -0.155,0.018 -0.3112,0.047 -0.4687,0.097 -0.069,0.1948 -0.1204,0.4413 -0.1534,0.7163 0.1164,-0.075 0.2336,-0.1492 0.3511,-0.2227 0.086,-0.1992 0.1737,-0.3974 0.271,-0.591 z m -2.1547,0.6272 c -0.5143,0.2778 -0.6631,0.4529 -0.7433,0.8675 0.3205,-0.2262 0.6484,-0.4421 0.9747,-0.6603 -0.079,-0.067 -0.156,-0.1365 -0.2314,-0.2072 z m -7.2997,10.5494 c -0.014,0.025 -0.024,0.047 -0.038,0.073 0.01,-0.01 0.018,-0.018 0.025,-0.024 0.01,-0.017 0.01,-0.032 0.013,-0.048 z m -0.013,0.048 c -0.089,0.3208 -0.1793,0.6446 -0.2546,0.9475 0.099,-0.1258 0.1521,-0.1874 0.2433,-0.3029 0.01,-0.2274 0.013,-0.4459 0.023,-0.6561 -0.01,0.01 -0.01,0.01 -0.011,0.012 z m -0.2353,1.3519 c -0.04,0.016 -0.082,0.03 -0.1231,0.05 -0.022,0.095 -0.043,0.1879 -0.065,0.2807 0.023,-0.038 0.045,-0.076 0.069,-0.1131 0.041,-0.076 0.079,-0.145 0.1184,-0.2171 z m -0.1873,0.3301 c -0.1092,0.1668 -0.2095,0.3131 -0.31,0.4598 -0.055,0.1356 -0.1138,0.2697 -0.1712,0.4044 0.1438,-0.2897 0.3053,-0.5794 0.4812,-0.8642 z m -3.3574,2.0634 c -1.208,1.0416 -2.3161,2.0973 -2.98,2.9349 -0.091,0.5246 -0.171,1.0712 -0.2421,1.6283 0.083,0.016 0.185,0.02 0.2976,0.019 0.8752,-0.7372 1.6943,-1.6343 2.5369,-2.4644 -0.022,-0.539 0.1677,-1.1478 0.5191,-1.7975 -0.044,-0.117 -0.088,-0.216 -0.1315,-0.3203 z m 2.2751,0.032 c -0.038,0.035 -0.076,0.071 -0.117,0.1097 l -0.015,0.024 c 0.029,-0.015 0.058,-0.031 0.087,-0.044 0.015,-0.031 0.03,-0.058 0.046,-0.088 z m -4.0769,15.0045 c -0.054,0.2627 -0.1038,0.5267 -0.156,0.7899 0.037,-0.034 0.072,-0.069 0.1103,-0.099 0.073,-0.057 0.1641,-0.1117 0.2512,-0.1667 -0.071,-0.1834 -0.1307,-0.3265 -0.2055,-0.5241 z m -2.7255,2.7904 c -0.01,0 -0.01,0.01 -0.01,0.01 v 0.09 c 0.01,-0.031 0.01,-0.063 0.01,-0.094 z m 362.1943,11.8791 c -5.8397,-0.013 -11.3068,3.0718 -14.43,10.3365 -9.0999,13.591 -17.416,34.8545 -20.8092,53.7374 -2.6028,-1.8408 -7.8565,-8.2196 -12.7617,-10.1459 -10.6428,-10.0538 -20.7414,-2.3601 -31.1186,6.8355 -0.4238,15.3383 -10.6503,5.8409 -17.8371,10.5502 -3.5742,-0.1834 -11.3916,7.1554 -13.1003,13.6766 -1.9549,8.7795 1.0133,19.0304 6.5333,25.5679 4.5006,5.3065 7.0329,17.3014 11.0704,24.8592 -0.3621,-9.7341 2.8142,11.6586 3.8972,20.2494 2.0624,10.2689 13.0663,58.3982 21.3751,60.8932 6.5081,0.2328 8.2621,-38.984 12.3664,-44.2536 8.0691,-19.8488 -6.1583,-44.7817 -4.3448,-64.4808 -1.53,-19.4487 10.7854,-14.1001 19.2633,-10.1606 3.2454,7.2157 1.5237,26.91 11.3574,31.5532 9.8307,16.5372 39.2586,42.9417 53.2871,27.6835 13.7026,-1.8428 19.109,-36.8225 10.956,-48.3176 6.0668,-17.4877 -12.7728,-11.9935 -21.1906,-8.6057 2.5795,-5.5265 -1.5163,-3.3929 -3.1168,-2.3852 0.2348,-0.1631 0.4141,-0.2831 0.8654,-0.6125 6.1156,-18.7615 10.6558,-31.6474 11.6755,-55.7331 -1.7399,-10.116 -0.553,-25.007 -7.2745,-32.9959 -4.6117,-5.1274 -10.8238,-8.2387 -16.6635,-8.2517 z m -135.4111,12.5417 c -15.5695,-0.1784 -16.3179,25.5422 -5.8775,34.8646 7.2567,1.9757 12.3119,17.8604 18.8191,19.992 8.2284,-1.1644 10.8382,-9.8351 8.9923,-21.8473 -3.0971,-15.4851 -5.4766,-32.7445 -21.1814,-32.9812 -0.2546,-0.016 -0.5054,-0.027 -0.7525,-0.027 z m 172.719,89.396 c -0.043,-0.024 -0.1037,0.2452 -0.1805,1.0358 0.2778,2.8702 0.336,-0.9504 0.1805,-1.0358 z m -409.2469,18.778 c -0.059,0.012 -0.117,0.023 -0.1752,0.035 -0.015,0.05 -0.027,0.092 -0.042,0.1445 0.038,0.1284 0.07,0.2494 0.1065,0.3755 0.041,-0.01 0.078,-0.02 0.119,-0.03 0,-0.1714 0.01,-0.3462 0.01,-0.5134 -0.01,-0.01 -0.01,-0.01 -0.011,-0.01 z m 9.416,0.3854 c 0.016,0.02 0.031,0.042 0.047,0.063 0.011,-0.01 0.021,-0.023 0.031,-0.032 -0.026,-0.01 -0.053,-0.02 -0.078,-0.031 z m -5.9162,0.097 c -0.029,0.077 -0.058,0.1549 -0.087,0.2328 0.037,0.052 0.073,0.1075 0.1105,0.1609 0.086,-0.048 0.1715,-0.095 0.2565,-0.1404 -0.042,-0.052 -0.083,-0.1032 -0.1243,-0.1551 -0.05,-0.033 -0.1045,-0.065 -0.156,-0.098 z m 8.5386,0.013 c -0.3352,0.092 -0.6717,0.1984 -1.0083,0.3062 0.31,0.043 0.628,0.076 0.9541,0.096 0.017,-0.1623 0.036,-0.2944 0.054,-0.4019 z m -8.2662,0.1634 c 0.01,0.022 0.018,0.044 0.027,0.066 0.013,-0.01 0.025,-0.014 0.038,-0.02 -0.023,-0.015 -0.043,-0.031 -0.066,-0.045 z m 61.8933,0.567 c -4.7168,-0.012 -10.353,7.3631 -12.0404,10.5172 -6.285,1.9956 -2.9814,23.7978 2.9595,30.9171 -3.7119,-11.6613 13.4848,-0.5875 15.8322,8.1476 7.3521,2.1213 8.9201,-10.2209 11.3192,-13.7996 -2.5295,-5.7541 2.9507,-8.8288 1.2106,-13.9275 3.6925,-12.1978 -7.0826,-21.7433 -16.2225,-20.5235 -0.9308,-0.9322 -1.9702,-1.3285 -3.0586,-1.3313 z m -57.7827,1.0136 c -0.019,0.013 -0.036,0.027 -0.056,0.04 -0.078,0.049 -0.1718,0.1145 -0.2572,0.1709 0.2737,-0.022 0.5442,-0.043 0.8226,-0.067 -0.1699,-0.048 -0.3399,-0.095 -0.5099,-0.1436 z m 1.4044,0.3903 c -0.066,0.4559 -0.1329,0.9257 -0.2063,1.3982 0.3917,-0.3231 0.7297,-0.7155 0.9971,-1.1993 -0.2634,-0.064 -0.5268,-0.1276 -0.7908,-0.1989 z m -9.9048,0.2253 c -0.01,0.022 -0.018,0.045 -0.027,0.067 -0.01,0.034 -0.01,0.067 -0.013,0.1007 0.024,0.1733 0.047,0.3466 0.071,0.5199 -0.047,-0.018 -0.099,-0.031 -0.1481,-0.048 v 0 c -0.013,0.067 -0.027,0.1336 -0.041,0.2005 0.01,0.025 0.01,0.05 0.01,0.075 0.016,0.01 0.03,0.01 0.046,0.012 0.1249,-0.1029 0.2328,-0.197 0.375,-0.3086 -0.078,-0.1761 -0.1529,-0.3535 -0.2269,-0.5316 -0.015,-0.029 -0.029,-0.058 -0.043,-0.087 z m -0.1507,0.9153 c -0.01,0 -0.015,-0.01 -0.021,-0.01 -0.01,0.031 -0.015,0.061 -0.022,0.092 0.015,-0.012 0.033,-0.025 0.047,-0.038 0,-0.017 -0.01,-0.032 -0.01,-0.048 z m 0.034,-0.2756 c 0.03,-0.1579 0.056,-0.3152 0.077,-0.4721 -0.01,-0.018 -0.01,-0.035 -0.01,-0.053 -0.049,0.1199 -0.099,0.2398 -0.1481,0.3599 0.01,0.048 0.013,0.097 0.016,0.1461 0.02,0.01 0.04,0.012 0.061,0.019 z m 7.4325,-0.3541 c -0.056,0.046 -0.1129,0.096 -0.1653,0.1288 -0.01,0.01 -0.01,0.01 -0.01,0.012 0.072,0.053 0.1454,0.1045 0.2201,0.1568 -0.01,-0.09 -0.013,-0.1802 -0.022,-0.2699 -0.01,-0.01 -0.017,-0.018 -0.025,-0.027 z m 0.049,0.2971 c 0.01,0.1146 0.01,0.2296 0.01,0.3449 0.077,-0.06 0.1552,-0.1165 0.2334,-0.174 -0.084,-0.056 -0.1577,-0.1142 -0.2387,-0.1709 z m 0.01,0.3449 c -0.078,0.061 -0.1541,0.124 -0.2308,0.1866 -0.026,0.2439 -0.083,0.4898 -0.156,0.7362 0.194,0.021 0.3261,-0.1588 0.3676,-0.5884 0.011,-0.112 0.016,-0.2231 0.019,-0.3344 z m -0.2308,0.1866 c 0.024,-0.2254 0.023,-0.4493 -0.01,-0.6727 -0.1924,0.3796 -0.3978,0.7488 -0.6108,1.1118 0.015,0.015 0.033,0.035 0.047,0.05 0.186,-0.1689 0.375,-0.3319 0.5667,-0.4885 z m 1.5094,0.2872 c -0.01,0.01 -0.01,0.02 -0.011,0.03 0.1008,0.092 0.202,0.1786 0.3042,0.2618 0.038,-0.022 0.073,-0.045 0.1097,-0.067 -0.1361,-0.075 -0.2726,-0.1487 -0.4034,-0.2245 z m -0.1262,0.3723 c -0.02,0.059 -0.039,0.1151 -0.059,0.1741 0.044,-0.022 0.09,-0.043 0.1341,-0.066 -0.026,-0.036 -0.049,-0.071 -0.075,-0.1081 z m -4.9993,0.02 c -0.125,0.128 -0.2459,0.2613 -0.3676,0.3936 0.067,0.077 0.1309,0.1532 0.205,0.232 0.051,0.022 0.093,0.058 0.1302,0.1015 0.016,-0.044 0.031,-0.088 0.046,-0.1321 0.029,-0.1158 0.058,-0.2317 0.087,-0.3475 -0.034,-0.083 -0.067,-0.1646 -0.1005,-0.2475 z m -0.1626,0.6256 c -0.096,-0.043 -0.2217,-0.04 -0.369,-0.01 0.027,0.1467 0.05,0.2946 0.077,0.4415 0.1242,-0.064 0.248,-0.126 0.3736,-0.1947 0.013,-0.038 0.027,-0.076 0.04,-0.1148 -0.04,-0.042 -0.083,-0.084 -0.1217,-0.1254 z m -0.4212,0.01 c -0.011,0.01 -0.02,0 -0.031,0.01 -0.037,0.012 -0.073,0.029 -0.1098,0.042 -0.011,0.05 -0.022,0.1 -0.033,0.1493 0.058,-0.066 0.1156,-0.1324 0.1739,-0.1979 z m -0.174,0.198 c -0.023,0.026 -0.045,0.052 -0.068,0.078 0.013,0.014 0.027,0.029 0.041,0.043 0.01,-0.04 0.017,-0.08 0.026,-0.1205 z m 0.7089,0.023 c -0.011,0.01 -0.021,0.012 -0.033,0.017 -0.037,0.098 -0.076,0.1928 -0.1158,0.288 0.021,0 0.053,-10e-5 0.071,0.01 0.025,-0.1032 0.052,-0.2063 0.077,-0.3095 z m -0.148,0.3054 c -0.071,-0.01 -0.1498,-0.01 -0.2428,-0.01 0.01,0.048 0.016,0.095 0.024,0.1428 0.04,0.033 0.079,0.06 0.119,0.091 0.033,-0.076 0.068,-0.1496 0.099,-0.2261 z m -9.1603,0.6307 v 0.01 c -0.061,0.032 -0.1213,0.065 -0.1819,0.096 0.2718,1.113 0.762,2.5463 1.2252,3.3501 0.2803,-0.1419 0.5501,-0.3288 0.8073,-0.5547 -0.7218,-1.1065 -1.3603,-2.094 -1.8499,-2.8936 z m 5.5831,0.146 c -0.018,0.088 -0.035,0.1777 -0.055,0.2657 0.1607,0.2494 0.3309,0.3362 0.5085,0.1024 0.011,-0.014 0.02,-0.028 0.03,-0.042 -0.1517,-0.084 -0.3125,-0.1923 -0.4833,-0.3261 z m -6.5353,0.2665 c -0.01,0 -0.01,0 -0.01,0.01 v 0.01 c 0.01,-0.01 0.01,-0.01 0.01,-0.01 z m -0.277,0.073 c -0.3538,0.094 -0.6989,0.1515 -1.0309,0.1642 -0.046,0.2785 -0.1,0.6071 -0.1527,0.9302 0.3901,-0.2742 0.7764,-0.5751 1.1558,-0.8997 0.01,-0.066 0.018,-0.1273 0.027,-0.1947 z m 12.9436,1.0284 c -0.1421,0.1734 -0.2855,0.3442 -0.4279,0.5166 0.076,0 0.1564,-0.01 0.238,-0.017 0.064,-0.1686 0.1291,-0.3356 0.1899,-0.4994 z m -2.8478,1.4805 c -0.096,0.093 -0.1943,0.1804 -0.2955,0.2641 -0.1487,0.4008 -0.2992,0.7888 -0.455,1.1655 0.3024,-0.3913 0.5569,-0.8673 0.7505,-1.4296 z m 188.2388,1.1753 c -0.1332,-0.01 -0.3142,0.1821 -0.5403,0.7164 0.8799,1.8217 1.0156,-0.6934 0.5403,-0.7164 z m -188.5906,0.1288 c -0.152,0.064 -0.2793,0.1203 -0.4225,0.1816 -0.062,0.1471 -0.1209,0.2912 -0.1811,0.4308 0.2092,-0.1659 0.4094,-0.3753 0.6036,-0.6124 z m -0.4548,0.1956 c -0.3245,0.139 -0.6799,0.2867 -0.9615,0.4126 -0.1308,0.1605 -0.2618,0.3214 -0.3933,0.4838 0.1395,-0.01 0.2764,-0.022 0.4106,-0.06 0.3444,-0.2129 0.6635,-0.4898 0.9442,-0.8369 z m -5.5297,0.4036 c -0.038,0 -0.075,0.01 -0.1136,0.01 0.2465,0.1802 0.5001,0.3445 0.7643,0.4754 -0.013,-0.136 -0.038,-0.2934 -0.064,-0.4532 -0.2021,-0.019 -0.4003,-0.032 -0.5872,-0.03 z m -5.9461,5.7352 c -0.1819,0.1298 -0.363,0.2465 -0.5434,0.3574 -0.6598,4.0358 -1.3815,8.4697 -2.188,13.4488 0.8339,-4.7773 1.7488,-9.3753 2.7314,-13.8062 z m -2.7235,13.8062 c -0.4438,2.5431 -0.866,5.1356 -1.2622,7.7805 0.478,-2.9624 0.8272,-5.095 1.2622,-7.7805 z m 274.9931,5.5751 c -0.035,0.5874 -0.065,1.1792 -0.09,1.7745 0.045,3.0456 0.083,3.4995 0.09,-1.7745 z m -155.7297,26.5188 c -0.1048,0.028 -0.2692,0.4983 -0.5078,1.7382 0.4931,3.7044 0.8817,-1.8385 0.5078,-1.7382 z m 83.9581,14.303 c 0.1856,-0.053 0.1726,1.1833 -0.3365,4.9512 -1.9077,3.7434 -0.1377,-4.8152 0.3365,-4.9512 z m -0.3452,12.8463 c 0.3665,-0.05 0.9246,0.871 1.6338,3.7091 -2.2537,2.9051 -2.5702,-3.5789 -1.6338,-3.7091 z m -89.5022,1.9817 c -0.06,-0.018 -0.019,0.2648 0.213,1.0845 1.4833,2.902 0,-1.0177 -0.213,-1.0845 z m 91.2485,9.0811 c 0.1562,-0.023 -0.3771,-1.1039 0,0 -0.8206,2.2055 -0.4687,0.069 0,0 z m -85.0801,10.2903 c 1.2256,2.6572 2.5897,6.2054 0,0 z m 128.9081,24.5882 c -0.1192,-0.01 -0.1392,0.2238 0.05,0.87 2.0659,2.1849 0.3753,-0.8475 -0.05,-0.87 z m -125.546,3.7974 c -0.1922,-0.03 7.579,12.0202 7.6259,12.8834 1.5527,0.9961 -7.1344,-12.8073 -7.6259,-12.8834 z m 190.4821,1.002 c -0.05,0 -0.084,0.01 -0.094,0.018 1.5236,0.2959 0.4433,-0.012 0.094,-0.018 z m -262.5129,3.5737 c -0.1922,0.033 -0.4417,0.3914 -0.7346,1.3138 1.3808,2.6139 1.4214,-1.4304 0.7346,-1.3138 z m 271.1508,15.9479 c -0.1017,0.014 -0.2284,0.088 -0.3822,0.25 0.6555,1.7569 0.9681,-0.105 0.4754,-0.2442 -0.028,-0.01 -0.06,-0.01 -0.094,-0.01 z m -10.1447,29.1515 c -0.1215,-0.01 -0.4395,0.2472 -1.0673,0.9665 -0.5724,2.4443 1.501,-0.9379 1.0673,-0.9665 z m -91.907,45.5031 c -0.1531,0.015 -0.272,0.3913 -0.2619,1.432 1.4876,1.7263 0.721,-1.4777 0.2619,-1.432 z m -238.5115,53.3661 c 0.1387,-0.01 0.3128,0.1674 0.5197,0.6577 -1.0461,2.9704 -1.1203,-0.6124 -0.5197,-0.6577 z m 97.6793,6.7148 c 0.1419,-0.014 0.2117,0.1785 0.1123,0.7371 -2.0494,1.9921 -0.6194,-0.6872 -0.1123,-0.7371 z m -190.27,48.5676 c 12.732,-0.094 -0.957,1.683 -11.2113,2.3208 -0.7656,-0.3994 -1.4966,-1.0049 -2.1904,-1.9197 6.1187,-0.2581 10.4637,-0.3794 13.4017,-0.4011 z m -13.6424,0.079 c 0.079,0.114 0.1593,0.2171 0.2393,0.3226 -0.659,0.028 -1.3609,0.059 -2.0616,0.09 0.573,-0.1329 1.1295,-0.2641 1.8223,-0.4126 z m 12.119,2.2654 c 0.2973,-0.023 0.9377,0.3373 2.0643,1.4551 -1.3417,1.1668 -2.8239,-1.3964 -2.0643,-1.4551 z m 460.1069,496.7152 c 0.3759,3.2751 2.1103,8.5017 0,0 z m -106.0698,188.1081 c -0.088,0.024 -0.1355,0.2538 -0.088,0.8387 1.2236,1.6168 0.4004,-0.9241 0.088,-0.8387 z"
     inkscape:connector-curvature="0"
     sodipodi:nodetypes="cccccccccccccccccccccccccccccccccccccccccccccccccccccccccccccccccccccccccccccccccccccccccccccccccccccccccccccccccccccccccccccccccccccccccccccccccccccccccccccccccccccccccccccccccccccccccccccccccccccccccccccccccccccccccccccccccccccccccccccccccccccccccccccccccccccccccccccccccccccccccccccccccccccccccccccccccccccccccccccccccccccccccccccccccccccccccccccccccccccccccccccccccccccccccccccccccccccccccccccccccccccccccccccccccccccccccccccccccccccccccccccccccccccccccccccccccccccccccccccccccccccccccccccccccccccccccccccccccccccccccccccccccccccccccccccccccccccccccccccccccccccccccccccccccccccccccccccccccccccccccccccccccccccccccccccccccccccccccccccccccccccccccccccccccccccccccccccccccccccccccccccccccccccccccccccccccccccccccccccccccccccccccccccccccccccccccccccccccccccccccccccccccccccccccccccccccccccccccc" />
</svg>
